<?xml version="1.0" encoding="utf-8"?>
<!-- Generator: Adobe Illustrator 19.2.1, SVG Export Plug-In . SVG Version: 6.00 Build 0)  -->
<svg version="1.1" id="Layer_1" xmlns="http://www.w3.org/2000/svg" xmlns:xlink="http://www.w3.org/1999/xlink" x="0px" y="0px"
	 viewBox="0 0 119.3 44.3" style="enable-background:new 0 0 119.3 44.3;" xml:space="preserve">
<style type="text/css">
	.st0{fill:none;stroke:#3D474F;stroke-width:1.5;stroke-miterlimit:10;}
	.st1{fill:#3D474F;}
	.st2{fill:#004F75;}
	.st3{fill:#058586;}
	.st4{fill:#4DB89E;}
	.st5{fill:#F0B032;}
	.st6{fill:#EB563C;}
</style>
<g>
	<polygon class="st0" points="20.6,41 6,32.7 6,15 20.6,6.7 35.2,15 35.2,32.7 	"/>
	<g>
		<path class="st1" d="M45,19.5h-2.6v-1.7h7.1v1.7h-2.6v7.3H45V19.5z"/>
		<path class="st1" d="M59.5,23h-4.2v3.8h-1.9v-8.9h1.9v3.5h4.2v-3.5h1.9v8.9h-1.9V23z"/>
		<path class="st1" d="M65.9,17.8h6.3v1.7h-4.4v1.9h4.3V23h-4.3v2h4.4v1.7h-6.3V17.8z"/>
		<path class="st1" d="M78.3,20.9v5.8h-1.9v-8.9h2l4.1,5.6v-5.6h1.9v8.9h-1.8L78.3,20.9z"/>
		<path class="st1" d="M90.9,19.5h-2.6v-1.7h7.1v1.7h-2.6v7.3h-1.9V19.5z"/>
		<path class="st1" d="M99.4,17.8h1.9v8.9h-1.9V17.8z"/>
		<path class="st1" d="M111.3,25.2h-3.8l-0.6,1.5h-2.2l3.5-8.9h2.4l3.4,8.9h-2.2L111.3,25.2z M108,23.5h2.8l-1.4-3.8L108,23.5z"/>
	</g>
	<g>
		<polygon class="st2" points="30.1,29.4 20.4,23.9 20.4,12.2 30.1,17.7 		"/>
		<polygon class="st3" points="27.9,30.7 18.2,25.2 18.2,13.4 27.9,18.9 		"/>
		<polygon class="st4" points="25.5,32.1 15.8,26.6 15.8,14.8 25.5,20.3 		"/>
		<polygon class="st5" points="23,33.5 13.3,28 13.3,16.2 23,21.8 		"/>
		<polygon class="st6" points="20.6,35 10.9,29.4 10.9,17.7 20.6,23.2 		"/>
	</g>
</g>
</svg>
