<svg id="Layer_1" data-name="Layer 1" xmlns="http://www.w3.org/2000/svg" viewBox="0 0 160 60"><defs><style>.cls-1{fill:none;stroke:#3d474f;stroke-miterlimit:10;stroke-width:1.5px;}.cls-2{fill:#3d474f;}.cls-3{fill:#004f75;}.cls-4{fill:#058586;}.cls-5{fill:#4db89e;}.cls-6{fill:#f0b032;}.cls-7{fill:#eb563c;}</style></defs><title>thentia_logo_web</title><polygon class="cls-1" points="27.2 52.96 7.75 41.85 7.75 18.15 27.2 7.04 46.73 18.15 46.73 41.85 27.2 52.96"/><path class="cls-2" d="M59.84,24.09h-3.5V21.85h9.54v2.24H62.4v9.72H59.84V24.09Z"/><path class="cls-2" d="M79.31,28.79H73.66v5H71.11v-12h2.55v4.7h5.65v-4.7h2.56v12H79.31v-5Z"/><path class="cls-2" d="M87.82,21.85h8.47v2.24H90.37v2.53h5.79v2.24H90.37v2.71h5.92v2.24H87.82v-12Z"/><path class="cls-2" d="M104.42,26v7.8h-2.55v-12h2.62L110,29.36V21.85h2.55v12h-2.46Z"/><path class="cls-2" d="M121.31,24.09h-3.5V21.85h9.54v2.24h-3.48v9.72h-2.56V24.09Z"/><path class="cls-2" d="M132.59,21.85h2.55v12h-2.55v-12Z"/><path class="cls-2" d="M148.61,31.79h-5.13l-0.75,2h-2.91l4.63-12h3.19l4.61,12h-2.91Zm-4.43-2.24h3.73L146,24.4Z"/><polygon class="cls-3" points="39.88 37.45 26.91 30.07 26.91 14.34 39.88 21.71 39.88 37.45"/><polygon class="cls-4" points="36.96 39.11 24 31.73 24 15.99 36.96 23.37 36.96 39.11"/><polygon class="cls-5" points="33.83 40.97 20.86 33.59 20.86 17.86 33.83 25.24 33.83 40.97"/><polygon class="cls-6" points="30.48 42.9 17.51 35.52 17.51 19.79 30.48 27.16 30.48 42.9"/><polygon class="cls-7" points="27.25 44.83 14.29 37.45 14.29 21.71 27.25 29.09 27.25 44.83"/></svg>